<?xml version="1.0" encoding="UTF-8"?>
<svg xmlns="http://www.w3.org/2000/svg" xmlns:xlink="http://www.w3.org/1999/xlink" width="40pt" height="40pt" viewBox="0 0 40 40" version="1.1">
<g id="surface1">
<path style=" stroke:none;fill-rule:nonzero;fill:rgb(98.823529%,98.823529%,98.823529%);fill-opacity:1;" d="M 17.484375 0.078125 C 12.878906 0.695312 8.753906 2.777344 5.554688 6.125 C 2 9.839844 0.0117188 14.789062 0.0117188 19.964844 C 0.0117188 24.125 1.292969 28.171875 3.691406 31.542969 C 4.101562 32.113281 4.171875 32.207031 4.742188 32.890625 C 6.8125 35.359375 9.613281 37.382812 12.664062 38.59375 C 15.761719 39.828125 19.246094 40.261719 22.582031 39.839844 C 26.433594 39.347656 29.898438 37.828125 32.960938 35.28125 C 33.554688 34.777344 34.835938 33.507812 35.347656 32.890625 C 37.898438 29.839844 39.429688 26.355469 39.921875 22.503906 C 39.988281 21.941406 40 21.644531 40 19.953125 C 40 18.273438 39.988281 17.964844 39.921875 17.40625 C 39.335938 12.855469 37.234375 8.675781 33.910156 5.484375 C 30.800781 2.503906 26.867188 0.628906 22.570312 0.078125 C 22.035156 0.0117188 21.726562 0 19.988281 0 C 18.332031 0.0117188 17.929688 0.0234375 17.484375 0.078125 Z M 20.984375 1.519531 C 24.480469 1.714844 27.769531 2.835938 30.582031 4.789062 C 32.308594 5.988281 34.011719 7.703125 35.210938 9.417969 C 38.527344 14.160156 39.394531 20.296875 37.554688 25.804688 C 36.847656 27.929688 35.804688 29.816406 34.34375 31.632812 C 33.816406 32.285156 32.355469 33.75 31.714844 34.261719 C 29.886719 35.726562 28.011719 36.765625 25.886719 37.472656 C 20.296875 39.335938 14.058594 38.410156 9.304688 34.996094 C 8.445312 34.378906 7.851562 33.863281 6.996094 33.003906 C 5.804688 31.816406 4.996094 30.777344 4.195312 29.460938 C 0.925781 24.035156 0.695312 17.246094 3.578125 11.589844 C 4.46875 9.828125 5.519531 8.398438 6.996094 6.925781 C 8.171875 5.75 9.210938 4.925781 10.539062 4.125 C 13.679688 2.238281 17.347656 1.324219 20.984375 1.519531 Z M 20.984375 1.519531 "/>
<path style=" stroke:none;fill-rule:nonzero;fill:rgb(98.823529%,98.823529%,98.823529%);fill-opacity:1;" d="M 8.742188 8.800781 C 8.675781 8.8125 8.273438 8.835938 7.839844 8.835938 C 7.382812 8.835938 6.972656 8.855469 6.855469 8.890625 L 6.640625 8.949219 L 6.640625 9.910156 C 6.640625 10.71875 6.628906 10.878906 6.582031 10.925781 C 6.527344 10.972656 6.527344 12.078125 6.527344 20.492188 C 6.527344 30.855469 6.515625 30.21875 6.753906 30.320312 C 6.847656 30.367188 8.125 30.367188 12.195312 30.355469 C 15.121094 30.34375 17.953125 30.320312 18.503906 30.296875 L 19.496094 30.261719 L 19.601562 30.148438 L 19.714844 30.046875 L 19.726562 23.78125 C 19.738281 18.34375 19.726562 17.507812 19.667969 17.382812 C 19.566406 17.121094 19.667969 17.121094 16.296875 17.121094 C 14.089844 17.121094 13.199219 17.132812 13.039062 17.164062 L 12.8125 17.210938 L 12.8125 19.429688 C 12.8125 20.914062 12.824219 21.667969 12.855469 21.738281 C 12.949219 21.929688 13.015625 21.941406 13.941406 21.964844 C 14.664062 21.976562 14.824219 22 14.847656 22.046875 C 14.867188 22.078125 14.890625 22.789062 14.890625 23.769531 L 14.890625 25.441406 L 14.800781 25.496094 C 14.71875 25.554688 14.492188 25.566406 13.121094 25.566406 L 11.53125 25.566406 L 11.429688 25.460938 L 11.335938 25.371094 L 11.359375 13.714844 L 11.453125 13.632812 C 11.542969 13.566406 11.667969 13.554688 15.484375 13.554688 C 19.816406 13.554688 19.601562 13.566406 19.691406 13.3125 C 19.75 13.132812 19.75 9.175781 19.691406 9.003906 C 19.601562 8.742188 19.953125 8.765625 14.148438 8.765625 C 11.234375 8.765625 8.8125 8.789062 8.742188 8.800781 Z M 8.742188 8.800781 "/>
<path style=" stroke:none;fill-rule:nonzero;fill:rgb(98.823529%,98.823529%,98.823529%);fill-opacity:1;" d="M 21.371094 8.8125 L 21.199219 8.855469 L 21.199219 19.382812 C 21.199219 26.273438 21.210938 29.953125 21.246094 30.046875 C 21.269531 30.125 21.324219 30.230469 21.371094 30.261719 C 21.453125 30.332031 21.621094 30.34375 27.828125 30.34375 L 34.207031 30.34375 L 34.296875 30.25 L 34.386719 30.160156 L 34.398438 24.867188 C 34.410156 20.855469 34.398438 19.554688 34.367188 19.460938 C 34.285156 19.269531 34.148438 19.234375 33.28125 19.234375 C 32.675781 19.234375 32.492188 19.222656 32.421875 19.175781 C 32.34375 19.121094 32.34375 19.003906 32.332031 14.070312 C 32.320312 11.292969 32.296875 8.984375 32.273438 8.949219 C 32.183594 8.753906 32.378906 8.765625 26.777344 8.765625 C 23.292969 8.765625 21.484375 8.789062 21.371094 8.8125 Z M 27.382812 13.65625 L 27.484375 13.75 L 27.484375 15.347656 C 27.484375 16.890625 27.484375 16.949219 27.40625 17.027344 C 27.335938 17.097656 27.269531 17.109375 26.753906 17.109375 C 26.273438 17.109375 26.171875 17.097656 26.113281 17.039062 C 26.058594 16.984375 26.046875 16.789062 26.058594 15.3125 L 26.070312 13.644531 L 26.171875 13.589844 C 26.238281 13.554688 26.445312 13.53125 26.789062 13.53125 C 27.269531 13.554688 27.292969 13.566406 27.382812 13.65625 Z M 29.484375 22 C 29.554688 22.046875 29.566406 22.101562 29.566406 23.738281 L 29.566406 25.429688 L 29.472656 25.484375 C 29.394531 25.542969 29.164062 25.554688 27.804688 25.554688 C 26.445312 25.554688 26.207031 25.542969 26.136719 25.484375 L 26.046875 25.429688 L 26.046875 23.75 C 26.046875 22.285156 26.058594 22.070312 26.113281 22.011719 C 26.171875 21.953125 26.378906 21.941406 27.792969 21.941406 C 28.824219 21.953125 29.429688 21.976562 29.484375 22 Z M 29.484375 22 "/>
</g>
</svg>
