<?xml version="1.0" encoding="utf-8"?>
<!-- Generator: Adobe Illustrator 19.0.0, SVG Export Plug-In . SVG Version: 6.00 Build 0)  -->
<svg version="1.1" id="Layer_1" xmlns="http://www.w3.org/2000/svg" xmlns:xlink="http://www.w3.org/1999/xlink" x="0px" y="0px"
	 viewBox="-288 379 35 35" style="enable-background:new -288 379 35 35;" xml:space="preserve">
<style type="text/css">
	.st0{fill:#FCFCFC;}
</style>
<title>Artboard</title>
<desc>Created with Sketch.</desc>
<g transform="translate(0.000000,1000.000000) scale(0.100000,-0.100000)">
	<path class="st0" d="M-2727,6209.3c-40.3-5.4-76.4-23.6-104.4-52.9c-31.1-32.5-48.5-75.8-48.5-121.1c0-36.4,11.2-71.8,32.2-101.3
		c3.6-5,4.2-5.8,9.2-11.8c18.1-21.6,42.6-39.3,69.3-49.9c27.1-10.8,57.6-14.6,86.8-10.9c33.7,4.3,64,17.6,90.8,39.9
		c5.2,4.4,16.4,15.5,20.9,20.9c22.3,26.7,35.7,57.2,40,90.9c0.6,4.9,0.7,7.5,0.7,22.3c0,14.7-0.1,17.4-0.7,22.3
		c-5.1,39.8-23.5,76.4-52.6,104.3c-27.2,26.1-61.6,42.5-99.2,47.3c-4.7,0.6-7.4,0.7-22.6,0.7
		C-2719.6,6209.9-2723.1,6209.8-2727,6209.3z M-2696.4,6196.7c30.6-1.7,59.4-11.5,84-28.6c15.1-10.5,30-25.5,40.5-40.5
		c29-41.5,36.6-95.2,20.5-143.4c-6.2-18.6-15.3-35.1-28.1-51c-4.6-5.7-17.4-18.5-23-23c-16-12.8-32.4-21.9-51-28.1
		c-48.9-16.3-103.5-8.2-145.1,21.7c-7.5,5.4-12.7,9.9-20.2,17.4c-10.4,10.4-17.5,19.5-24.5,31c-28.6,47.5-30.6,106.9-5.4,156.4
		c7.8,15.4,17,27.9,29.9,40.8c10.3,10.3,19.4,17.5,31,24.5C-2760.3,6190.4-2728.2,6198.4-2696.4,6196.7z"/>
	<path class="st0" d="M-2803.5,6133c-0.6-0.1-4.1-0.3-7.9-0.3c-4,0-7.6-0.2-8.6-0.5l-1.9-0.5v-8.4c0-7.1-0.1-8.5-0.5-8.9
		c-0.5-0.4-0.5-10.1-0.5-83.7c0-90.7-0.1-85.1,2-86c0.8-0.4,12-0.4,47.6-0.3c25.6,0.1,50.4,0.3,55.2,0.5l8.7,0.3l0.9,1l1,0.9
		l0.1,54.8c0.1,47.6,0,54.9-0.5,56c-0.9,2.3,0,2.3-29.5,2.3c-19.3,0-27.1-0.1-28.5-0.4l-2-0.4V6040c0-13,0.1-19.6,0.4-20.2
		c0.8-1.7,1.4-1.8,9.5-2c6.3-0.1,7.7-0.3,7.9-0.7c0.2-0.3,0.4-6.5,0.4-15.1v-14.6l-0.8-0.5c-0.7-0.5-2.7-0.6-14.7-0.6h-13.9
		l-0.9,0.9l-0.8,0.8l0.1,51l0.1,51l0.8,0.7c0.8,0.6,1.9,0.7,35.3,0.7c37.9,0,36-0.1,36.8,2.1c0.5,1.6,0.5,36.2,0,37.7
		c-0.8,2.3,2.3,2.1-48.5,2.1C-2781.7,6133.3-2802.9,6133.1-2803.5,6133z"/>
	<path class="st0" d="M-2693,6132.9l-1.5-0.4v-92.1c0-60.3,0.1-92.5,0.4-93.3c0.2-0.7,0.7-1.6,1.1-1.9c0.7-0.6,2.2-0.7,56.5-0.7
		h55.8l0.8,0.8l0.8,0.8l0.1,46.3c0.1,35.1,0,46.5-0.3,47.3c-0.7,1.7-1.9,2-9.5,2c-5.3,0-6.9,0.1-7.5,0.5c-0.7,0.5-0.7,1.5-0.8,44.7
		c-0.1,24.3-0.3,44.5-0.5,44.8c-0.8,1.7,0.9,1.6-48.1,1.6C-2676.2,6133.3-2692,6133.1-2693,6132.9z M-2640.4,6090.5l0.9-0.8v-14
		c0-13.5,0-14-0.7-14.7c-0.6-0.6-1.2-0.7-5.7-0.7c-4.2,0-5.1,0.1-5.6,0.6c-0.5,0.5-0.6,2.2-0.5,15.1l0.1,14.6l0.9,0.5
		c0.6,0.3,2.4,0.5,5.4,0.5C-2641.4,6091.4-2641.2,6091.3-2640.4,6090.5z M-2622,6017.5c0.6-0.4,0.7-0.9,0.7-15.2v-14.8l-0.8-0.5
		c-0.7-0.5-2.7-0.6-14.6-0.6s-14,0.1-14.6,0.6l-0.8,0.5v14.7c0,12.8,0.1,14.7,0.6,15.2c0.5,0.5,2.3,0.6,14.7,0.6
		C-2627.8,6017.9-2622.5,6017.7-2622,6017.5z"/>
</g>
</svg>
